# xmcd CD database file
#
# Track frame offsets:
#	150
#	16008
#	28471
#	44347
#	60471
#	74462
#	88239
#	102343
#	118901
#	133596
#	149220
#	164396
#	180362
#	194543
#	213497
#
# Disc length: 2995 seconds
#
# Revision: 1
# Processed by: cddbd v1.5PL3 Copyright (c) Steve Scherf et al.
# Submitted via: CDex 1.50
#
DISCID=e60bb10f
DTITLE=Forró Mangseco - Eu quero é Mais
DYEAR=2004
DGENRE=Forro
TTITLE0=Eu quero é Mais
TTITLE1=Molhadinho de Suor
TTITLE2=Você me dominou
TTITLE3=Desejo de Amar
TTITLE4=No Cheirinho de Suor
TTITLE5=A Poeira voa
TTITLE6=É tanto Amor
TTITLE7=Dona do meu Coração
TTITLE8=É pra xamegar
TTITLE9=Forró Pé-de-Serra
TTITLE10=Apaixonado por Você
TTITLE11=Xóte das Gatinhas
TTITLE12=São Paulo Capital do Forró
TTITLE13=O Melhor da Vaquejada
TTITLE14=Beliscando (Forró Solo)
EXTD=YEAR: 2004
EXTT0=
EXTT1=
EXTT2=
EXTT3=
EXTT4=
EXTT5=
EXTT6=
EXTT7=
EXTT8=
EXTT9=
EXTT10=
EXTT11=
EXTT12=
EXTT13=
EXTT14=
PLAYORDER=
